<svg aria-hidden="true" style="position: absolute; width: 0; height: 0; overflow: hidden;" version="1.1" xmlns="http://www.w3.org/2000/svg" xmlns:xlink="http://www.w3.org/1999/xlink">
<defs>
<symbol id="icon-Facebook" viewBox="0 0 32 32">
<path d="M27.296 0h-22.624c-2.576 0-4.688 2.096-4.688 4.672v22.64c0 2.576 2.112 4.688 4.688 4.688h9.44v-11.328h-3.744v-5.616h3.744v-3.808c0-3.104 2.528-5.632 5.632-5.632h5.68v5.632h-5.68v3.808h5.68l-0.928 5.616h-4.752v11.328h7.552c2.592 0 4.688-2.112 4.688-4.688v-22.64c0-2.576-2.096-4.672-4.688-4.672z"></path>
</symbol>
<symbol id="icon-Instagram" viewBox="0 0 32 32">
<path d="M21.984 0h-12c-5.52 0-10 4.464-10 10v12c0 5.52 4.48 10 10 10h12c5.536 0 10-4.48 10-10v-12c0-5.536-4.464-10-10-10zM28.992 22c0 3.856-3.136 6.992-7.008 6.992h-12c-3.856 0-6.992-3.136-6.992-6.992v-12c0-3.872 3.136-7.008 6.992-7.008h12c3.872 0 7.008 3.136 7.008 7.008v12z"></path>
<path d="M15.984 8c-4.416 0-8 3.568-8 8 0 4.416 3.584 8 8 8 4.432 0 8-3.584 8-8 0-4.432-3.568-8-8-8zM15.984 20.992c-2.752 0-4.992-2.24-4.992-4.992 0-2.768 2.24-5.008 4.992-5.008 2.768 0 5.008 2.24 5.008 5.008 0 2.752-2.24 4.992-5.008 4.992z"></path>
<path d="M25.664 7.392c0 0.592-0.48 1.072-1.072 1.072s-1.072-0.48-1.072-1.072c0-0.592 0.48-1.072 1.072-1.072s1.072 0.48 1.072 1.072z"></path>
</symbol>
<symbol id="icon-Github" viewBox="0 0 34 32">
<path d="M16.842 0c-9.314 0-16.842 7.343-16.842 16.404 0 7.242 4.817 13.389 11.503 15.562 0.842 0.152 1.162-0.354 1.162-0.792 0-0.387-0.017-1.415-0.034-2.796-4.682 0.994-5.676-2.189-5.676-2.189-0.758-1.903-1.869-2.408-1.869-2.408-1.516-1.011 0.118-0.994 0.118-0.994 1.701 0.118 2.577 1.684 2.577 1.684 1.516 2.509 3.941 1.785 4.918 1.364 0.152-1.061 0.573-1.768 1.061-2.189-3.739-0.404-7.663-1.819-7.663-8.101 0-1.802 0.64-3.251 1.718-4.413-0.185-0.404-0.758-2.072 0.152-4.328 0 0 1.415-0.438 4.632 1.667 1.347-0.354 2.779-0.539 4.211-0.539s2.863 0.185 4.211 0.539c3.2-2.105 4.615-1.667 4.615-1.667 0.909 2.257 0.337 3.924 0.168 4.328 1.078 1.162 1.718 2.611 1.718 4.413 0 6.299-3.924 7.68-7.68 8.084 0.589 0.505 1.145 1.499 1.145 3.048 0 2.189-0.034 3.958-0.034 4.48 0 0.438 0.303 0.943 1.162 0.792 6.737-2.156 11.571-8.32 11.571-15.545 0-9.061-7.545-16.404-16.842-16.404z"></path>
</symbol>
<symbol id="icon-Close" viewBox="0 0 32 32">
<path d="M18.924 14.919l12.458-12.458c0.817-0.817 0.817-2.13 0-2.935-0.806-0.817-2.119-0.817-2.924 0l-12.469 12.458-12.458-12.458c-0.806-0.817-2.119-0.817-2.924 0-0.817 0.806-0.817 2.119 0 2.935l12.458 12.458-12.458 12.458c-0.817 0.817-0.817 2.119 0 2.935 0.397 0.397 0.927 0.607 1.457 0.607 0.541 0 1.070-0.21 1.468-0.607l12.458-12.469 12.469 12.469c0.397 0.397 0.927 0.607 1.468 0.607 0.53 0 1.059-0.21 1.457-0.607 0.817-0.817 0.817-2.119 0-2.935l-12.458-12.458z"></path>
</symbol>
</defs>
</svg>
